HIERARCHY
ROOT Hips
{
	OFFSET	0.00	0.00	0.00
	CHANNELS 6 Xposition Yposition Zposition Zrotation Xrotation Yrotation
	JOINT Chest
	{
		OFFSET	 0.000000	 4.570000	 0.000000
		CHANNELS 3 Zrotation Xrotation Yrotation
		JOINT Neck
		{
			OFFSET	 0.000000	 17.620001	 0.000000
			CHANNELS 3 Zrotation Xrotation Yrotation
			JOINT Head
			{
				OFFSET	 0.000000	 5.190000	 0.000000
				CHANNELS 3 Zrotation Xrotation Yrotation
				End Site 
				{
					OFFSET	 0.000000	 4.140008	 0.000000
				}
			}
		}
		JOINT LeftCollar
		{
			OFFSET	 1.060000	 15.330000	 01.760000
			CHANNELS 3 Zrotation Xrotation Yrotation
			JOINT LeftShoulder
			{
				OFFSET	 5.00000	 0.000000	 0.000000
				CHANNELS 3 Zrotation Xrotation Yrotation
				JOINT LeftElbow
				{
					OFFSET	 0.000000	-11.90000	 0.000000
					CHANNELS 3 Zrotation Xrotation Yrotation
					JOINT LeftWrist
					{
						OFFSET	 0.000000	-9.520000	 0.000000
						CHANNELS 3 Zrotation Xrotation Yrotation
						End Site 
						{
							OFFSET	 0.000000	-7.0	 0.000000
						}
					}
				}
			}
		}
		JOINT RightCollar
		{
			OFFSET	-1.060000	 15.330000	 01.760000
			CHANNELS 3 Zrotation Xrotation Yrotation
			JOINT RightShoulder
			{
				OFFSET	-5.000000	 0.000000	 0.000000
				CHANNELS 3 Zrotation Xrotation Yrotation
				JOINT RightElbow
				{
					OFFSET	 0.000000	-11.900000	 0.000000
					CHANNELS 3 Zrotation Xrotation Yrotation
					JOINT RightWrist
					{
						OFFSET	 0.000000	-9.520000	 0.000000
						CHANNELS 3 Zrotation Xrotation Yrotation
						End Site 
						{
							OFFSET	 0.000000	-7.0	 0.000000
						}
					}
				}
			}
		}
	}
	JOINT LeftHip
	{
		OFFSET	 3.430000	 0.000000	 0.000000
		CHANNELS 3 Zrotation Xrotation Yrotation
		JOINT LeftKnee
		{
			OFFSET	 0.000000	-19.0	 0.000000
			CHANNELS 3 Zrotation Xrotation Yrotation
			JOINT LeftAnkle
			{
				OFFSET	 0.000000	-15.00000	 0.000000
				CHANNELS 3 Zrotation Xrotation Yrotation
				End Site 
				{
					OFFSET	 0.000000	-3.0	 0.000000
				}
			}
		}
	}
	JOINT RightHip
	{
		OFFSET	-3.430000	 0.000000	 0.000000
		CHANNELS 3 Zrotation Xrotation Yrotation
		JOINT RightKnee
		{
			OFFSET	 0.000000	-19.0	 0.000000
			CHANNELS 3 Zrotation Xrotation Yrotation
			JOINT RightAnkle
			{
				OFFSET	 0.000000	-15.00000	 0.000000
				CHANNELS 3 Zrotation Xrotation Yrotation
				End Site 
				{
					OFFSET	 0.000000	-3.0	 0.000000
				}
			}
		}
	}
}
MOTION
Frames: 8
Frame Time: 0.033333333
0.000000	32.639762	0.000000	-4.905959	1.682905	79.158311	-3.898494	-2.530544	5.478095	-355.493851	-341.479451	-0.496284	355.863692	337.364781	-18.996673	42.354811	23.509485	11.589363	-1.564117	9.215514	8.371400	117.402384	-126.176417	122.284644	-188.372500	-197.665724	128.408755	338.114736	-338.219593	-27.368151	-22.041162	5.417015	73.836091	286.170438	313.861336	-36.368202	-314.934249	-355.695314	-9.414654	5.032810	1.160924	19.163408	-348.405017	-304.836443	-7.588901	339.824250	-356.072395	-5.707486	5.304274	-12.295328	2.677102	-3.241990	24.177841	0.797174	-338.716776	349.816762	-2.333693	
-0.024898	32.566162	0.331109	-5.264605	0.589670	80.339743	-2.923757	-2.652135	5.725740	-356.183017	-341.630207	-0.414937	355.975134	337.484309	-19.322147	41.667626	23.404802	12.844685	-1.098506	9.831080	8.738470	116.138498	-127.507156	119.502626	-190.058191	-198.157566	129.044386	336.615892	-338.189349	-26.874241	-21.581538	4.292449	73.909017	285.234484	313.871499	-39.281469	-315.285731	-354.909351	-9.546511	7.619655	-3.966756	20.494105	-339.766986	-298.112040	-15.316714	341.695940	-352.194706	-5.187571	6.722371	-11.063748	3.130602	-3.206130	24.948519	0.845915	-338.724808	347.924690	-3.498098	
-0.083752	32.499759	0.595185	-5.210341	-0.356210	81.231438	-1.952395	-2.274254	5.987543	-357.239374	-341.743834	-0.303686	356.297355	337.525236	-19.115662	40.488722	23.271292	14.417581	-0.506879	10.766590	9.225120	114.876279	-128.679012	117.432942	-191.010825	-198.479636	129.375309	334.785019	-338.094436	-25.912601	-21.133477	2.522927	73.821379	284.606243	314.106239	-41.781584	-315.787586	-354.179313	-9.618975	9.524837	-8.769408	21.779200	-328.557553	-293.364239	-25.945660	342.511137	-350.236873	-3.703629	7.887127	-9.442341	3.362334	-3.146813	25.525253	0.874522	-338.368163	346.237005	-4.258134	
-0.168890	32.478515	0.768941	-4.952871	-0.836087	81.679259	-1.251281	-1.714294	6.171283	-358.578364	-341.773094	-0.172095	356.941797	337.493735	-18.351362	38.793479	23.106538	16.260482	0.286816	12.147413	9.911487	113.617912	-129.797756	116.274228	-190.934518	-198.621199	129.265875	332.778145	-337.942123	-24.517047	-20.617115	0.147266	73.639983	284.543979	314.740326	-43.200310	-316.298757	-353.726690	-9.615585	10.512495	-12.930226	22.673074	-318.992829	-290.778794	-35.343598	342.807376	-350.156468	-1.520253	8.528225	-7.730601	3.321558	-3.095660	25.869204	0.887396	-338.372890	344.845559	-4.626234	
-0.277344	32.515794	0.848692	-4.754374	-0.660822	81.745628	-1.031722	-1.302833	6.226316	359.903285	-341.768832	-0.024492	357.797510	337.503379	-17.231915	36.720592	22.905633	18.307567	1.341950	13.911262	10.868031	112.341234	-131.024362	115.502416	-190.085416	-198.583100	128.844330	330.627565	-337.766724	-22.852784	-20.001312	-2.664867	73.424170	284.922590	315.622459	-43.644146	-316.746162	-353.359909	-9.601912	10.508715	-16.468352	22.968379	-316.110080	-289.788143	-38.342106	-16.806291	8.840344	0.820371	8.462298	-6.100483	3.017242	-3.100771	25.795894	0.883321	-338.588724	343.824664	-4.534775	
-0.396079	32.607017	0.858057	-4.630091	-0.018022	81.690010	-1.210610	-1.053778	6.183862	-1.627433	18.231134	0.124822	358.693658	337.557584	-16.096723	34.537848	22.684828	20.340250	2.535829	15.752277	12.005565	111.198926	-132.294067	114.667781	-189.310231	-198.630160	128.490130	328.490945	-337.611788	-21.214318	-19.405704	-5.602616	73.163687	285.571185	316.591226	-43.501282	-317.256459	-353.119131	-9.548609	9.754118	-19.398269	22.707735	-320.429929	-290.165033	-34.218369	-16.493704	7.564148	2.712587	7.833295	-4.375416	2.526023	-3.132593	25.102833	0.840749	-339.260104	343.063180	-4.226864	
-0.517052	32.730389	0.847868	-4.610258	0.488190	81.511899	-1.240674	-0.914385	6.177201	-3.104361	18.182301	0.266893	359.613630	337.607444	-15.004397	32.433255	22.462504	22.208375	3.765262	17.388599	13.219849	110.286870	-133.538322	113.586459	-189.111923	-199.305707	128.466593	326.550953	-337.486959	-19.736558	-18.944535	-8.336107	72.860720	286.213796	317.639933	-43.247671	-317.783695	-353.164320	-9.432629	9.088933	-21.613607	22.382355	-328.728854	-292.259606	-26.109439	-16.534815	6.577201	3.727684	7.356369	-2.430572	2.082934	-3.276090	23.720739	0.770568	-340.132018	342.570669	-3.790762	
-0.644927	32.853841	0.814078	-4.772624	0.835609	81.380978	-1.109643	-0.917669	6.208013	-4.448901	18.019767	0.385671	-359.577266	337.633836	-14.037039	30.629754	22.267751	23.731780	4.844039	18.753232	14.335281	109.794216	-134.649908	112.186708	-189.645374	-200.199300	128.802283	324.872693	-337.397730	-18.517448	-18.753479	-10.678507	72.476290	286.727891	318.676564	-43.575144	-318.326831	-353.305677	-9.318257	8.472891	-23.270689	22.022664	-337.731972	-296.485007	-17.333821	-16.736475	5.788687	3.986219	6.988222	-0.349871	1.680624	-3.426551	21.824563	0.657499	-340.247339	342.279539	-3.109860	
